# xmcd
#
# Track frame offsets:
#	183
#	17143
#	35163
#	56028
#	74650
#	91868
#	107848
#	126430
#	142870
#	158290
#	176390
#	194108
#	209215
#	221030
#	237358
#	254350
#
# Disc length: 3671 seconds
#
# Revision: 4
# Processed by: cddbd v1.5.2PL0 Copyright (c) Steve Scherf et al.
# Submitted via: EasyCDDAExtractor 12.0.0.1
#
DISCID=f70e5510
DTITLE=Various Artist - The 80's - Album of the Decade [CD2)
DYEAR=1989
DGENRE=Pop
TTITLE0=Band Aid - Do They Know it`s Christmas
TTITLE1=Pet Shop Boys - West End Girls
TTITLE2=Feargal Sharkey - A Good Heart
TTITLE3=Billy Ocean - When the Going Gets Tough, The Tough Gets Going
TTITLE4=Diana Ross - Chain Reaction
TTITLE5=Rick Astley - Never Gonna Give You Up
TTITLE6=M.A.R.R.S. - Pump up the Volume
TTITLE7=Paul Hardcastle - 19
TTITLE8=Kyle Minogue - I Should be So Lucky
TTITLE9=Yazz and the Plastic Population - The Only Way is Up
TTITLE10=S-Express - Theme from S-Express
TTITLE11=Aswad - Don`t Turn Around
TTITLE12=Wet Wet Wet - With a Little Help From My Friends
TTITLE13=Fairground Attraction - Perfect
TTITLE14=Enya - Orinoco Flow
TTITLE15=Marc Almond with Gene - Something`s Gotten Hold of My Heart
EXTD=CD EMTVD 48
EXTT0=
EXTT1=
EXTT2=
EXTT3=
EXTT4=
EXTT5=
EXTT6=
EXTT7=
EXTT8=
EXTT9=
EXTT10=
EXTT11=
EXTT12=
EXTT13=
EXTT14=
EXTT15=
PLAYORDER=
